<?xml version="1.0" encoding="UTF-8"?>
<svg width="50px" height="50px" viewBox="0 0 50 50" version="1.1" xmlns="http://www.w3.org/2000/svg" xmlns:xlink="http://www.w3.org/1999/xlink">
    <!-- Generator: Sketch 51.3 (57544) - http://www.bohemiancoding.com/sketch -->
    <title>icon-github</title>
    <desc>Created with Sketch.</desc>
    <defs></defs>
    <g id="icon-github" stroke="none" stroke-width="1" fill="none" fill-rule="evenodd">
        <path d="M25.4976875,7 C15.283375,7 7,15.2630101 7,25.4562006 C7,33.6089148 12.30025,40.5253943 19.654,42.9679916 C20.579,43.1380313 20.916625,42.5681685 20.916625,42.07873 C20.916625,41.6398437 20.9004375,40.4794377 20.8911875,38.9398891 C15.745875,40.0543384 14.659,36.4651221 14.659,36.4651221 C13.8195625,34.3327324 12.6055,33.7651675 12.6055,33.7651675 C10.9243125,32.6208463 12.730375,32.6438246 12.730375,32.6438246 C14.5873125,32.7748011 15.5631875,34.5464309 15.5631875,34.5464309 C17.2143125,37.3658729 19.8945,36.5524398 20.949,36.079086 C21.1155,34.8865103 21.5941875,34.0730772 22.12375,33.6112126 C18.01675,33.1447524 13.697,31.5615449 13.697,24.4911105 C13.697,22.4759103 14.4185,20.8283635 15.6025,19.5369809 C15.4105625,19.0705207 14.7769375,17.1931905 15.782875,14.6540842 C15.782875,14.6540842 17.336875,14.1577521 20.870375,16.5452014 C22.34575,16.136187 23.9275,15.9316798 25.5023125,15.9247863 C27.0725,15.9339776 28.6565625,16.136187 30.13425,16.5474992 C33.6654375,14.16005 35.217125,14.656382 35.217125,14.656382 C36.225375,17.1977862 35.59175,19.0728185 35.402125,19.5392787 C36.5884375,20.8306613 37.303,22.4782081 37.303,24.4934083 C37.303,31.5822254 32.978625,33.1424545 28.85775,33.5997234 C29.5214375,34.1695862 30.1134375,35.2955247 30.1134375,37.0166022 C30.1134375,39.4844757 30.0903125,41.4743997 30.0903125,42.07873 C30.0903125,42.5727642 30.4233125,43.1472226 31.3621875,42.9656938 C38.704375,40.5207987 44,33.6066169 44,25.4562006 C44,15.2630101 35.716625,7 25.4976875,7 Z" id="shape" fill="#FFFFFF" fill-rule="nonzero"></path>
    </g>
</svg>