<?xml version="1.0" encoding="UTF-8"?>
<svg width="50px" height="50px" viewBox="0 0 50 50" version="1.1" xmlns="http://www.w3.org/2000/svg" xmlns:xlink="http://www.w3.org/1999/xlink">
    <!-- Generator: Sketch 51.3 (57544) - http://www.bohemiancoding.com/sketch -->
    <title>icon-doc</title>
    <desc>Created with Sketch.</desc>
    <defs></defs>
    <g id="icon-doc" stroke="none" stroke-width="1" fill="none" fill-rule="evenodd">
        <path d="M37.0435973,17.4446542 C37.221006,17.6220629 37.3806739,17.8349533 37.5403417,18.0833255 L29.166651,18.0833255 L29.166651,9.7096348 C29.4150232,9.86930264 29.6279136,10.0289705 29.8053223,10.2063792 L37.0435973,17.4446542 Z M28.5989432,20.3541569 L38.2499765,20.3541569 L38.2499765,39.0885157 C38.2499765,40.0287818 37.4871191,40.7916392 36.546853,40.7916392 L12.7031235,40.7916392 C11.7628574,40.7916392 11,40.0287818 11,39.0885157 L11,10.7031235 C11,9.76285742 11.7628574,9 12.7031235,9 L26.8958196,9 L26.8958196,18.6510333 C26.8958196,19.5912995 27.658677,20.3541569 28.5989432,20.3541569 Z M31.4374824,33.4114373 L31.4374824,32.2760216 C31.4374824,31.9566859 31.1891102,31.7083137 30.8697745,31.7083137 L18.380202,31.7083137 C18.0608663,31.7083137 17.8124941,31.9566859 17.8124941,32.2760216 L17.8124941,33.4114373 C17.8124941,33.7307729 18.0608663,33.9791451 18.380202,33.9791451 L30.8697745,33.9791451 C31.1891102,33.9791451 31.4374824,33.7307729 31.4374824,33.4114373 Z M31.4374824,28.8697745 L31.4374824,27.7343588 C31.4374824,27.4150232 31.1891102,27.166651 30.8697745,27.166651 L18.380202,27.166651 C18.0608663,27.166651 17.8124941,27.4150232 17.8124941,27.7343588 L17.8124941,28.8697745 C17.8124941,29.1891102 18.0608663,29.4374824 18.380202,29.4374824 L30.8697745,29.4374824 C31.1891102,29.4374824 31.4374824,29.1891102 31.4374824,28.8697745 Z M31.4374824,24.3281118 L31.4374824,23.1926961 C31.4374824,22.8733604 31.1891102,22.6249882 30.8697745,22.6249882 L18.380202,22.6249882 C18.0608663,22.6249882 17.8124941,22.8733604 17.8124941,23.1926961 L17.8124941,24.3281118 C17.8124941,24.6474474 18.0608663,24.8958196 18.380202,24.8958196 L30.8697745,24.8958196 C31.1891102,24.8958196 31.4374824,24.6474474 31.4374824,24.3281118 Z" id="shape" fill="#FFFFFF"></path>
    </g>
</svg>