<?xml version="1.0" encoding="UTF-8"?>
<svg width="50px" height="50px" viewBox="0 0 50 50" version="1.1" xmlns="http://www.w3.org/2000/svg" xmlns:xlink="http://www.w3.org/1999/xlink">
    <!-- Generator: Sketch 51.3 (57544) - http://www.bohemiancoding.com/sketch -->
    <title>icon-api</title>
    <desc>Created with Sketch.</desc>
    <defs></defs>
    <g id="icon-api" stroke="none" stroke-width="1" fill="none" fill-rule="evenodd">
        <path d="M18.134107,32.66543 C16.5809304,30.8636418 15.6396548,28.5186441 15.6396548,25.9529137 C15.6396548,22.1199821 17.736903,18.7793879 20.8444058,17.0089276 L23.5199277,22.0725591 C22.223123,22.8793256 21.3568621,24.313226 21.3568621,25.9529137 C21.3568621,27.0160521 21.7230254,27.9915298 22.3314775,28.7681181 L18.134107,32.66543 Z M36.2169448,25.9316452 L30.4997375,25.9448662 C30.4951389,23.4239721 28.4507746,21.3813323 25.9287309,21.3813323 C25.6349955,21.3813323 25.3481579,21.4115106 25.0696553,21.4646819 L24.157121,15.8190403 C24.732808,15.7190208 25.3240153,15.6638376 25.9287309,15.6638376 C31.6045508,15.6638376 36.2057357,20.2589869 36.2169448,25.9316452 Z M25.9287309,36.2419898 C24.093028,36.2419898 22.370853,35.759137 20.8786079,34.9167313 L23.535448,29.842753 C24.2321356,30.2724345 25.0501113,30.5244952 25.9287309,30.5244952 C27.9472281,30.5244952 29.6570444,29.2141821 30.2629097,27.3991729 L35.5788893,29.5280364 C34.1260196,33.448054 30.3543069,36.2419898 25.9287309,36.2419898 Z M41.8666101,25.960099 C41.8660352,25.0978619 41.7743507,24.0352983 41.6076515,23.1121297 L44.5789208,22.5732314 C44.2713895,20.8703131 43.7313416,19.217117 42.9734352,17.662216 L40.2634238,18.9820137 C39.8529989,18.1398954 39.3684216,17.3403141 38.8223381,16.5893055 L41.2624692,14.8133844 C40.2476161,13.4182847 39.047382,12.1674659 37.6951067,11.0957052 L35.8203157,13.4611091 C35.0914378,12.8834102 34.3134125,12.3652057 33.4894012,11.9202913 L34.9215771,9.26718754 C33.3974292,8.44461329 31.7689506,7.83616126 30.0821273,7.45850139 L29.4230907,10.4041909 C28.5260767,10.2035771 27.601471,10.075966 26.6538724,10.0337164 L26.788094,7.0201975 C25.0814392,6.94403321 23.3316726,7.09981073 21.6600821,7.48465591 L22.3375131,10.4266091 C21.4192306,10.6381446 20.5294018,10.925557 19.6789485,11.2882715 L18.4956717,8.51531674 C16.9094428,9.19217291 15.4206466,10.0845884 14.0718203,11.1675583 L15.9606945,13.5208909 C15.2332537,14.1049129 14.5589843,14.7513033 13.9442092,15.4520147 L11.6753758,13.4619713 C10.534636,14.7627998 9.57812759,16.2107834 8.83200503,17.7659719 L11.5506388,19.069387 C11.1505608,19.9034578 10.8249225,20.7789159 10.5734367,21.6854146 L7.66338626,20.8789354 C7.20755022,22.5237965 6.97675807,24.2255653 6.97675807,25.9442913 L6.97848254,26.0540829 L9.99113919,25.978206 C9.99286367,26.9298284 10.0822489,27.8601823 10.2431999,28.7661062 L7.27164318,29.2952324 C7.57457583,30.9987256 8.11117476,32.6519217 8.86563228,34.2096968 L11.5788052,32.8950725 C11.9880805,33.7383405 12.4706459,34.5382092 13.0158672,35.2903674 L10.572287,37.0614025 C11.5842661,38.4582267 12.7816261,39.7116321 14.1313146,40.7859796 L16.0112791,38.4248869 C16.7387198,39.0040228 17.5155955,39.5239518 18.3384572,39.9705907 L16.9008204,42.6199581 C18.422669,43.4456939 20.0499979,44.0575949 21.7371087,44.4387037 L22.4027557,41.4944512 C23.299195,41.6970769 24.2232258,41.8272747 25.1702496,41.8715362 L25.0294176,44.8962642 C25.3274642,44.9103474 25.6295346,44.9293166 25.9281561,44.9293166 C25.9287309,44.9293166 25.9298806,44.9293166 25.930168,44.9293166 C27.3565957,44.9293166 28.7798618,44.760893 30.1594413,44.4456016 L29.4854592,41.4895652 C30.4054663,41.2800415 31.2967321,40.9937788 32.148335,40.632214 L33.3255761,43.4068932 C34.9129548,42.7331986 36.4034754,41.8436572 37.7551759,40.7632741 L35.8706128,38.4053428 C36.5994906,37.8227579 37.2751972,37.1783793 37.8911219,36.4785302 L40.1567938,38.4731722 C41.2995454,37.1752178 42.258928,35.7292461 43.0076372,34.1752073 L40.2930272,32.8663313 C40.6959794,32.0302487 41.0239169,31.1519164 41.2777021,30.2425436 L44.2734014,31.0608067 C44.7358479,29.4044491 45.0606239,27.685723 45.0606239,25.9529137 L45.0606239,25.960099 L41.8666101,25.960099 Z" id="Fill-93" fill="#FFFFFF"></path>
    </g>
</svg>